<svg width="22" height="22" viewBox="0 0 22 22" fill="none" xmlns="http://www.w3.org/2000/svg">
<path d="M13.3477 10.9986L20.5075 3.85447C20.821 3.54089 20.9972 3.11558 20.9972 2.67211C20.9972 2.22864 20.821 1.80333 20.5075 1.48975C20.1939 1.17617 19.7687 1 19.3253 1C18.8819 1 18.4566 1.17617 18.1431 1.48975L11 8.65052L3.8569 1.48975C3.54337 1.17617 3.11812 1 2.67471 1C2.2313 1 1.80606 1.17617 1.49252 1.48975C1.17898 1.80333 1.00284 2.22864 1.00284 2.67211C1.00284 3.11558 1.17898 3.54089 1.49252 3.85447L8.65227 10.9986L1.49252 18.1427C1.33646 18.2975 1.21259 18.4817 1.12805 18.6846C1.04352 18.8875 1 19.1052 1 19.3251C1 19.5449 1.04352 19.7626 1.12805 19.9655C1.21259 20.1684 1.33646 20.3526 1.49252 20.5074C1.64731 20.6635 1.83147 20.7874 2.03437 20.8719C2.23727 20.9565 2.4549 21 2.67471 21C2.89452 21 3.11215 20.9565 3.31505 20.8719C3.51796 20.7874 3.70211 20.6635 3.8569 20.5074L11 13.3466L18.1431 20.5074C18.2979 20.6635 18.482 20.7874 18.6849 20.8719C18.8878 20.9565 19.1055 21 19.3253 21C19.5451 21 19.7627 20.9565 19.9656 20.8719C20.1685 20.7874 20.3527 20.6635 20.5075 20.5074C20.6635 20.3526 20.7874 20.1684 20.8719 19.9655C20.9565 19.7626 21 19.5449 21 19.3251C21 19.1052 20.9565 18.8875 20.8719 18.6846C20.7874 18.4817 20.6635 18.2975 20.5075 18.1427L13.3477 10.9986Z" fill="#A5ABB1" stroke="transparent"/>
</svg>
