<svg width="33" height="33" viewBox="0 0 33 33" fill="none" xmlns="http://www.w3.org/2000/svg">
<path d="M20.3555 20.356L19.2474 21.4653H19.7154C19.6587 21.6757 19.6298 21.893 19.6298 22.1117C19.6298 22.438 19.6941 22.761 19.819 23.0623L20.4195 22.8134L19.819 23.0623C19.9439 23.3636 20.1269 23.6373 20.3576 23.8678C20.3577 23.8678 20.3577 23.8679 20.3578 23.868L27.4122 30.9224L27.4123 30.9225C27.8781 31.388 28.5097 31.6493 29.1682 31.6491C29.8266 31.6488 30.458 31.387 30.9235 30.9213C31.3889 30.4555 31.6502 29.8239 31.65 29.1655C31.6498 28.5071 31.388 27.8757 30.9224 27.4103C30.9223 27.4103 30.9223 27.4102 30.9222 27.4102L23.868 20.356C23.868 20.3559 23.8679 20.3559 23.8678 20.3558C23.8678 20.3558 23.8678 20.3557 23.8678 20.3557C23.6373 20.125 23.3636 19.942 23.0624 19.8172C22.761 19.6922 22.438 19.6279 22.1118 19.6279C21.7855 19.6279 21.4625 19.6922 21.1612 19.8172C20.8598 19.9421 20.586 20.1252 20.3555 20.356Z" fill="#A5ABB1" stroke="#A5ABB1" stroke-width="1.3"/>
<path fill-rule="evenodd" clip-rule="evenodd" d="M12.9104 22.9884C14.2338 22.9884 15.5443 22.7277 16.767 22.2212C17.9898 21.7148 19.1008 20.9724 20.0366 20.0366C20.9724 19.1008 21.7148 17.9898 22.2212 16.767C22.7277 15.5443 22.9884 14.2338 22.9884 12.9104C22.9884 11.5869 22.7277 10.2764 22.2212 9.05368C21.7148 7.83096 20.9724 6.71997 20.0366 5.78414C19.1008 4.84831 17.9898 4.10597 16.767 3.5995C15.5443 3.09304 14.2338 2.83236 12.9104 2.83236C10.2375 2.83236 7.67413 3.89415 5.78414 5.78414C3.89415 7.67413 2.83236 10.2375 2.83236 12.9104C2.83236 15.5832 3.89415 18.1466 5.78414 20.0366C7.67413 21.9266 10.2375 22.9884 12.9104 22.9884ZM24.8207 12.9104C24.8207 16.0692 23.5659 19.0986 21.3323 21.3323C19.0986 23.5659 16.0692 24.8207 12.9104 24.8207C9.75154 24.8207 6.72209 23.5659 4.48846 21.3323C2.25484 19.0986 1 16.0692 1 12.9104C1 9.75154 2.25484 6.72209 4.48846 4.48846C6.72209 2.25484 9.75154 1 12.9104 1C16.0692 1 19.0986 2.25484 21.3323 4.48846C23.5659 6.72209 24.8207 9.75154 24.8207 12.9104Z" fill="#A5ABB1" stroke="#A5ABB1"/>
</svg>
