<svg width="18" height="17" viewBox="0 0 18 17" fill="none" xmlns="http://www.w3.org/2000/svg">
<path d="M15.7274 11.3319H5.12359L5.35092 12.591H14.9991C15.4734 12.5907 15.9349 12.7457 16.3142 13.0325C16.6934 13.3194 16.9699 13.7226 17.102 14.1814C17.2341 14.6403 17.2147 15.1299 17.0466 15.5767C16.8786 16.0234 16.571 16.4031 16.1701 16.6585C15.7693 16.9139 15.297 17.0313 14.8243 16.9929C14.3515 16.9544 13.9039 16.7624 13.549 16.4456C13.194 16.1287 12.9507 15.7043 12.8559 15.2362C12.7611 14.7681 12.8198 14.2816 13.0232 13.85H7.60055C7.77607 14.2219 7.84467 14.6358 7.79856 15.0449C7.75246 15.454 7.5935 15.8419 7.3397 16.1647C7.08591 16.4874 6.74743 16.7321 6.36264 16.8709C5.97785 17.0098 5.56214 17.0372 5.16264 16.9502C4.76314 16.8632 4.39583 16.6652 4.10234 16.3787C3.80886 16.0921 3.60094 15.7284 3.50216 15.3289C3.40339 14.9294 3.4177 14.51 3.54348 14.1182C3.66926 13.7265 3.90148 13.378 4.21381 13.1125C4.17088 13.0179 4.13973 12.9184 4.12108 12.8162L2.03511 1.2591H0.624962C0.459212 1.2591 0.30025 1.19277 0.183047 1.07471C0.065844 0.956642 0 0.796514 0 0.629548C0 0.462581 0.065844 0.302453 0.183047 0.18439C0.30025 0.0663273 0.459212 1.47103e-07 0.624962 1.47103e-07H2.03503C2.3278 -0.000142384 2.61132 0.103294 2.83609 0.292254C3.06087 0.481214 3.21263 0.743694 3.26488 1.03387L3.64642 3.14774H16.7501C16.9332 3.14774 17.114 3.18825 17.2798 3.26641C17.4456 3.34457 17.5924 3.45847 17.7097 3.60006C17.827 3.74165 17.912 3.90747 17.9587 4.0858C18.0054 4.26413 18.0126 4.45061 17.9798 4.63205L16.9572 10.298C16.905 10.5882 16.7532 10.8507 16.5284 11.0396C16.3036 11.2286 16.0201 11.332 15.7273 11.3319H15.7274Z" fill="#F28B30"/>
</svg>
